<svg version="1.0" xmlns="http://www.w3.org/2000/svg"
 viewBox="0 0 1024.000000 1024.000000"
 preserveAspectRatio="xMidYMid meet">

<g transform="translate(0.000000,1024.000000) scale(0.100000,-0.100000)"
fill="#000000" stroke="none">
<path d="M2624 9761 c-2 -2 -4 -55 -4 -118 l0 -113 130 0 c107 0 132 -3 136
-15 8 -21 94 -21 94 0 0 11 20 15 103 17 l102 3 3 113 3 112 -178 1 c-98 0
-225 1 -281 2 -57 1 -106 0 -108 -2z m181 -201 c4 -6 -6 -10 -22 -10 -22 0
-25 2 -13 10 19 12 27 12 35 0z"/>
<path d="M3373 9555 c-22 -10 -33 -21 -33 -35 0 -13 -9 -24 -25 -30 -33 -13
-32 -30 3 -30 36 0 49 -10 53 -40 2 -14 12 -26 22 -28 13 -3 17 3 17 27 0 19
8 38 20 48 25 22 26 39 1 46 -11 3 -21 15 -23 30 -3 25 -4 25 -35 12z"/>
<path d="M2332 9534 c-27 -19 -20 -39 8 -22 23 15 75 0 75 -22 0 -21 -62 -37
-87 -21 -26 16 -30 11 -15 -19 18 -36 60 -38 106 -5 49 33 46 68 -6 90 -44 19
-53 19 -81 -1z"/>
<path d="M2766 9472 c-4 -7 -35 -12 -77 -12 l-69 0 0 -77 c0 -43 -3 -176 -7
-295 -5 -169 -3 -218 6 -218 8 0 10 7 6 20 -6 19 -2 20 132 20 76 0 197 1 268
1 120 1 130 0 128 -17 -1 -15 2 -15 16 5 15 20 19 47 20 157 l2 134 -70 0
c-41 0 -71 4 -71 10 0 6 6 10 14 10 7 0 27 7 42 15 l29 15 -37 0 c-21 0 -38 5
-38 10 0 6 28 10 65 10 l65 0 0 105 0 105 -52 0 c-29 0 -123 3 -209 7 -113 4
-158 3 -163 -5z m402 -27 c-18 -18 -458 -33 -458 -16 0 7 60 12 173 14 94 1
199 4 231 5 33 1 57 0 54 -3z m-378 -205 l0 -30 -75 0 -75 0 0 30 0 30 75 0
75 0 0 -30z m0 -55 c18 -21 -9 -29 -73 -21 -29 4 -60 8 -69 9 -10 1 -18 7 -18
14 0 20 143 18 160 -2z m73 -12 c-7 -2 -19 -2 -25 0 -7 3 -2 5 12 5 14 0 19
-2 13 -5z m170 0 c-7 -2 -21 -2 -30 0 -10 3 -4 5 12 5 17 0 24 -2 18 -5z m137
-13 c0 -5 -20 -10 -45 -10 -25 0 -45 5 -45 10 0 6 20 10 45 10 25 0 45 -4 45
-10z m-386 -35 c-4 -9 -19 -15 -38 -15 -29 1 -30 1 -12 15 26 20 57 20 50 0z
m128 -85 l3 -90 -70 0 c-41 0 -76 -5 -83 -12 -8 -8 -15 -8 -28 3 -15 12 -7 15
67 19 l84 5 3 83 c2 45 7 82 12 82 5 0 10 -41 12 -90z m115 -86 c-3 -3 -12 -4
-19 -1 -8 3 -5 6 6 6 11 1 17 -2 13 -5z m46 -1 c-7 -2 -19 -2 -25 0 -7 3 -2 5
12 5 14 0 19 -2 13 -5z m70 0 c-7 -2 -21 -2 -30 0 -10 3 -4 5 12 5 17 0 24 -2
18 -5z"/>
<path d="M3170 9231 c0 -11 5 -23 10 -26 6 -4 10 5 10 19 0 14 -4 26 -10 26
-5 0 -10 -9 -10 -19z"/>
<path d="M3360 9210 c-43 -37 -44 -40 -22 -46 16 -5 22 -14 22 -34 0 -28 15
-40 51 -40 22 0 22 0 9 35 -9 22 -7 27 15 35 30 11 33 30 5 37 -10 3 -23 16
-27 29 l-8 24 -45 -40z"/>
<path d="M2352 9209 c-40 -12 -60 -48 -45 -82 10 -21 17 -24 65 -22 70 3 66 2
78 25 8 16 7 27 -7 50 -9 17 -20 30 -24 30 -4 0 -13 2 -21 4 -7 2 -28 0 -46
-5z m38 -30 c13 -24 -4 -53 -27 -45 -8 3 -13 -2 -13 -12 -1 -15 -2 -15 -15 2
-22 29 -18 43 13 60 15 8 28 15 29 16 1 0 7 -9 13 -21z"/>
<path d="M3347 8889 c-14 -8 -16 -14 -6 -25 14 -17 5 -18 -21 -2 -35 22 -32 0
7 -51 32 -41 43 -50 71 -50 30 -1 32 1 28 25 -3 15 -2 24 1 20 10 -9 33 15 33
35 0 24 -18 33 -35 19 -11 -9 -15 -9 -15 -1 0 6 5 11 11 11 8 0 8 5 -1 15 -14
17 -47 19 -73 4z m53 -59 c0 -18 -21 -21 -41 -6 -19 13 -20 14 -2 18 22 5 43
-1 43 -12z"/>
<path d="M2320 8865 c0 -8 -4 -15 -10 -15 -14 0 -12 -46 3 -58 29 -23 75 -24
106 -1 17 13 31 28 31 35 0 16 -67 22 -98 10 -28 -12 -39 -2 -21 20 9 11 22
14 41 10 18 -3 27 -2 23 4 -10 17 -75 12 -75 -5z"/>
<path d="M2640 8735 l0 -125 168 0 c92 0 204 -3 249 -7 l83 -6 -3 131 -2 132
-247 0 -248 0 0 -125z"/>
<path d="M2460 8820 c0 -5 5 -10 10 -10 6 0 10 5 10 10 0 6 -4 10 -10 10 -5 0
-10 -4 -10 -10z"/>
<path d="M3173 8765 c0 -33 2 -45 4 -27 2 18 2 45 0 60 -2 15 -4 0 -4 -33z"/>
<path d="M3163 8693 c-7 -2 -13 -21 -13 -41 0 -29 3 -34 11 -22 8 12 9 10 7
-10 -2 -19 -10 -26 -30 -28 -40 -5 -34 -22 7 -22 l35 0 0 65 c0 36 -1 65 -2
64 -2 0 -9 -3 -15 -6z"/>
<path d="M2716 8323 c-3 -148 -11 -529 -16 -848 -5 -319 -14 -731 -20 -915 -6
-184 -16 -506 -21 -715 -6 -209 -14 -497 -19 -640 -4 -143 -11 -407 -16 -587
l-7 -328 -45 -21 c-50 -25 -60 -23 -177 32 -82 39 -101 57 -137 136 -26 57
-32 84 -36 164 -3 59 0 103 6 116 10 19 8 21 -28 27 -50 8 -226 -10 -255 -27
-12 -6 -49 -26 -81 -44 -121 -65 -204 -177 -254 -342 -20 -64 -22 -88 -17
-175 7 -118 25 -187 74 -276 40 -73 127 -191 174 -235 68 -66 159 -258 139
-295 -6 -10 -10 -54 -10 -97 0 -48 -5 -85 -12 -95 -7 -9 -38 -32 -68 -51 -30
-19 -66 -48 -80 -64 -14 -15 -63 -59 -108 -98 -46 -38 -92 -86 -104 -105 -12
-19 -42 -60 -68 -90 -90 -106 -197 -303 -226 -415 -7 -27 -24 -94 -38 -147
-33 -129 -49 -313 -36 -426 15 -137 89 -379 152 -502 78 -151 145 -239 293
-384 67 -65 191 -161 233 -179 15 -6 46 -24 69 -39 23 -15 44 -28 47 -28 3 0
30 -11 60 -25 121 -55 320 -112 471 -134 83 -13 160 -24 173 -27 21 -4 22 -8
22 -134 l0 -131 123 3 122 3 5 130 5 130 90 12 c166 23 269 46 405 90 132 43
316 132 374 180 16 13 46 33 67 44 50 25 225 200 307 306 34 44 85 125 112
179 52 102 123 305 136 389 6 41 8 46 15 27 8 -20 15 -22 79 -22 l70 0 2 -257
3 -258 143 -3 143 -3 -7 -57 c-4 -34 -20 -84 -40 -122 -56 -109 -100 -329 -88
-436 10 -84 49 -136 131 -177 95 -47 155 -58 473 -88 347 -32 1149 -40 1400
-14 80 8 188 19 240 24 52 5 106 11 120 15 14 3 84 15 157 26 72 11 162 27
200 35 37 8 122 24 188 36 66 11 131 22 145 25 31 7 40 8 275 38 314 41 516
55 800 56 418 1 749 45 885 116 64 34 75 44 104 99 87 163 -65 399 -279 431
-39 5 -57 15 -81 41 -33 36 -58 37 -70 1 -7 -22 -10 -22 -154 9 l-85 19 0
1354 c0 745 -4 1361 -8 1368 -7 10 -74 12 -300 12 -495 -1 -467 -2 -461 15 4
9 0 15 -10 15 -17 0 -29 35 -24 71 3 22 8 24 71 27 l67 3 0 -51 c0 -53 -1 -54
-55 -50 -22 1 -27 -1 -19 -10 8 -8 98 -9 324 -4 268 6 315 10 327 23 8 9 32
43 54 76 l39 60 0 725 0 725 -22 14 c-19 12 -309 14 -1868 12 -1146 -1 -1849
-6 -1854 -12 -6 -5 -18 -9 -28 -9 -13 0 -18 -8 -18 -25 l0 -25 -178 0 -178 0
4 40 c3 25 9 40 17 40 8 0 21 7 29 16 15 14 17 13 25 -8 10 -23 10 -23 10 5 1
15 4 27 9 28 63 7 72 6 72 -7 0 -18 5 -18 35 2 29 19 45 11 45 -21 0 -32 16
-40 25 -12 l7 22 7 -25 c8 -24 8 -23 16 13 9 46 33 49 37 5 2 -25 8 -34 26
-36 21 -3 22 0 22 58 0 53 -2 61 -16 56 -9 -3 -96 -6 -194 -6 l-179 0 -3 -47
-3 -48 -226 -3 -226 -2 -6 -737 c-6 -806 -9 -769 52 -820 46 -39 113 -53 260
-53 l135 0 27 33 27 32 141 3 c118 3 146 1 166 -12 55 -36 15 -70 -96 -80 -42
-4 -209 -11 -370 -15 -200 -5 -301 -11 -316 -19 l-23 -13 0 -1024 0 -1025 -63
0 -64 0 -10 -77 c-10 -76 -10 -75 -11 77 -4 334 -112 657 -298 891 -74 93
-223 242 -303 301 -29 22 -66 55 -82 72 l-28 31 20 -75 c12 -41 59 -191 106
-333 91 -274 94 -292 59 -367 -8 -19 -21 -42 -28 -52 -9 -13 0 -51 52 -210 61
-184 66 -195 110 -236 25 -23 48 -42 52 -42 5 0 8 -11 8 -25 0 -57 -100 -36
-163 34 -20 22 -40 60 -50 96 -23 80 -65 208 -89 273 l-20 52 -92 -6 c-131 -9
-183 5 -239 65 -24 25 -52 69 -61 96 -57 158 -79 204 -116 240 -30 29 -48 38
-84 42 l-47 6 6 116 c4 64 8 126 11 139 2 12 -1 22 -7 22 -18 0 8 27 31 33 24
6 27 -18 4 -27 -13 -5 -15 -15 -10 -48 5 -28 3 -44 -6 -49 -10 -6 -10 -20 0
-67 7 -32 12 -67 12 -78 0 -16 7 -19 41 -20 34 0 47 -6 81 -42 22 -23 44 -42
50 -42 5 0 7 -7 4 -16 -3 -8 2 -30 11 -47 9 -18 33 -75 52 -127 41 -107 65
-130 155 -151 69 -15 146 5 243 63 84 50 87 60 52 156 -11 31 -27 77 -34 102
-8 25 -37 117 -65 205 -65 207 -119 430 -115 479 4 42 48 139 102 224 18 29
33 56 33 60 0 4 33 43 73 87 89 99 147 195 182 303 24 72 27 94 23 175 -5 108
-14 128 -87 192 -51 45 -57 47 -102 43 -79 -8 -103 -46 -127 -204 -6 -39 -21
-91 -32 -115 -35 -74 -60 -119 -66 -119 -3 0 -2 6 2 13 5 8 2 7 -10 -2 -10 -9
-13 -17 -6 -21 6 -4 5 -13 -6 -26 -8 -10 -12 -13 -8 -5 5 9 3 12 -4 7 -7 -4
-12 -17 -12 -30 0 -12 -4 -26 -9 -31 -4 -6 -20 -40 -34 -77 -28 -70 -38 -142
-41 -273 -1 -68 -4 -80 -19 -83 -16 -3 -18 4 -16 75 2 108 27 259 51 313 64
140 103 220 128 260 31 48 58 156 47 185 -10 25 -56 14 -148 -35 -139 -75
-137 -75 -239 -75 -83 0 -102 3 -151 28 -37 18 -66 41 -84 67 -31 44 -32 65
-49 585 -3 99 -8 241 -11 315 -3 74 -7 477 -11 895 -3 418 -10 924 -16 1125
-5 201 -12 602 -15 893 l-5 527 -173 0 -172 0 -7 -267z m139 -153 c-10 -11
-15 -28 -12 -40 3 -11 1 -20 -4 -20 -15 0 -10 47 7 64 22 23 30 20 9 -4z m85
-20 c0 -16 -4 -31 -9 -34 -4 -3 -6 6 -3 19 2 14 -1 32 -8 40 -11 13 -10 14 4
9 9 -4 16 -17 16 -34z m-10 -330 c0 -5 -20 -10 -45 -10 -25 0 -45 5 -45 10 0
6 20 10 45 10 25 0 45 -4 45 -10z m0 -63 c0 -8 -14 -11 -45 -9 -25 2 -45 8
-45 13 0 5 20 9 45 9 29 0 45 -4 45 -13z m-40 -617 c0 -160 -4 -250 -10 -250
-6 0 -10 88 -10 243 0 215 3 257 17 257 2 0 3 -112 3 -250z m0 -916 c0 -263 3
-536 6 -606 l7 -128 54 0 c34 0 52 -4 48 -10 -3 -5 -31 -10 -61 -10 l-54 0 -1
-32 -2 -33 -6 35 c-6 33 -8 35 -56 41 l-50 6 48 1 47 2 2 133 c3 295 3 813 0
820 -3 5 -4 63 -3 130 2 111 6 145 17 134 2 -2 4 -219 4 -483z m5900 -696 c0
-47 -7 -49 -176 -46 l-159 3 -3 33 -3 32 170 0 c171 0 171 0 171 -22z m-3917
-119 l6 -21 1728 6 c950 3 1905 9 2121 12 l392 6 -2 -638 -3 -639 -1550 -1
c-852 -1 -1823 1 -2157 4 l-608 5 0 644 0 643 34 0 c26 0 35 -5 39 -21z
m-1979 -183 c2 -17 -2 -26 -10 -26 -14 0 -20 41 -7 53 9 10 14 2 17 -27z m6
-61 c0 -8 -9 -15 -20 -15 -11 0 -20 7 -20 15 0 8 9 15 20 15 11 0 20 -7 20
-15z m-2 -63 c3 -16 -1 -19 -16 -15 -14 3 -18 11 -15 24 7 25 27 19 31 -9z m2
-52 c0 -11 -6 -20 -14 -20 -7 0 -16 9 -19 20 -4 15 0 20 14 20 12 0 19 -7 19
-20z m0 -65 c0 -16 -6 -25 -15 -25 -9 0 -15 9 -15 25 0 16 6 25 15 25 9 0 15
-9 15 -25z m0 -100 c0 -32 -4 -45 -14 -45 -10 0 -14 13 -14 45 0 32 4 45 14
45 10 0 14 -13 14 -45z m10 -95 c0 -15 -7 -20 -25 -20 -18 0 -25 5 -25 20 0
15 7 20 25 20 18 0 25 -5 25 -20z m-2 -77 c-4 -24 -38 -26 -38 -2 0 13 7 19
21 19 14 0 19 -5 17 -17z m-5 -57 c7 -16 -1 -26 -20 -26 -7 0 -13 9 -13 20 0
23 25 27 33 6z m5 -68 c-7 -20 -48 -23 -48 -4 0 11 9 16 26 16 16 0 24 -5 22
-12z m0 -60 c-2 -15 -10 -23 -23 -23 -13 0 -21 8 -23 23 -3 18 1 22 23 22 22
0 26 -4 23 -22z m-8 -68 c0 -11 -7 -20 -15 -20 -8 0 -15 9 -15 20 0 11 7 20
15 20 8 0 15 -9 15 -20z m3 -57 c-7 -2 -21 -2 -30 0 -10 3 -4 5 12 5 17 0 24
-2 18 -5z m2 -23 c4 -6 -5 -10 -20 -10 -15 0 -24 4 -20 10 3 6 12 10 20 10 8
0 17 -4 20 -10z m-2 -37 c-7 -2 -19 -2 -25 0 -7 3 -2 5 12 5 14 0 19 -2 13 -5z
m0 -30 c-7 -2 -21 -2 -30 0 -10 3 -4 5 12 5 17 0 24 -2 18 -5z m5 -45 c-2 -15
-10 -23 -23 -23 -13 0 -21 8 -23 23 -3 18 1 22 23 22 22 0 26 -4 23 -22z m-3
-58 c11 -18 -6 -50 -26 -50 -13 0 -19 7 -19 23 0 13 3 27 7 30 10 10 31 8 38
-3z m5 -94 c0 -29 -11 -44 -31 -39 -12 3 -19 14 -19 29 0 19 5 24 25 24 15 0
25 -6 25 -14z m5850 -99 l0 -53 -47 1 -48 1 -3 38 c-5 58 2 66 53 66 l45 0 0
-53z m-5855 33 c4 -6 -6 -10 -22 -10 -22 0 -25 2 -13 10 19 12 27 12 35 0z m5
-55 c0 -9 -9 -15 -25 -15 -16 0 -25 6 -25 15 0 9 9 15 25 15 16 0 25 -6 25
-15z m1968 8 c-10 -2 -28 -2 -40 0 -13 2 -5 4 17 4 22 1 32 -1 23 -4z m-1968
-58 c0 -9 -9 -15 -25 -15 -16 0 -25 6 -25 15 0 9 9 15 25 15 16 0 25 -6 25
-15z m5550 -35 c-91 -11 -41 -13 324 -10 l349 2 -9 -23 c-11 -30 -12 -2513 -1
-2553 l8 -29 -413 6 c-227 4 -1040 10 -1805 14 l-1393 6 0 36 c0 32 -4 38 -42
57 -37 18 -43 25 -42 50 1 17 40 110 88 207 47 97 86 178 86 181 0 19 248 535
280 584 12 17 19 32 15 32 -3 0 -43 -16 -88 -35 -45 -18 -120 -49 -167 -68
-223 -90 -440 -181 -488 -204 -29 -14 -55 -23 -58 -20 -3 3 14 38 39 79 24 40
49 90 56 110 7 20 20 47 30 60 10 13 24 40 31 61 6 21 45 104 85 185 73 147
117 239 195 407 119 255 195 412 220 455 20 34 130 268 130 276 0 2 -223 4
-495 4 l-495 0 0 -954 0 -954 -41 -4 c-22 -2 -42 -2 -45 1 -2 2 -4 453 -4
1001 l0 997 258 7 c261 6 341 11 377 23 21 7 1392 18 2435 19 349 0 610 -2
580 -6z m-5190 -112 c0 -62 -3 -137 -6 -165 -7 -51 -8 -53 -38 -52 -27 0 -28
2 -11 10 18 8 17 9 -5 5 -14 -3 -174 -8 -356 -12 l-331 -7 -6 154 c-3 84 -3
157 -1 161 3 4 79 8 170 8 l164 0 0 -41 0 -40 38 3 c35 3 37 5 40 40 l3 37
132 4 c73 1 149 4 170 5 l37 2 0 -112z m-710 -488 c16 -16 25 -18 40 -10 15 8
22 6 34 -12 24 -33 19 -56 -13 -72 -29 -15 -29 -15 -65 28 -51 62 -47 117 4
66z m228 3 c-2 -10 3 -18 10 -18 8 0 19 -7 26 -15 11 -15 38 -34 65 -47 8 -4
21 2 30 14 9 11 27 25 39 32 12 6 22 21 22 31 0 24 15 26 24 4 4 -10 13 -13
26 -9 74 23 163 3 205 -47 52 -62 53 -58 -6 -58 -47 1 -52 2 -36 14 9 7 17 19
17 27 -1 10 -5 8 -15 -5 -12 -16 -18 -17 -27 -8 -7 7 -8 12 -4 12 5 0 3 7 -4
15 -7 8 -16 15 -21 15 -5 0 -9 -7 -9 -15 0 -17 -2 -18 -24 -9 -12 5 -14 10 -6
19 17 20 -4 28 -52 20 -27 -5 -42 -13 -45 -26 -3 -11 -25 -25 -62 -37 l-56
-19 -57 27 c-32 15 -65 33 -73 40 -13 11 -17 8 -26 -19 -9 -25 -16 -31 -41
-31 -21 0 -27 4 -21 13 13 20 12 36 -3 48 -8 6 -14 19 -14 28 1 12 7 9 25 -11
13 -16 26 -24 30 -19 3 5 18 12 35 16 20 4 27 11 23 21 -3 9 1 14 11 14 10 0
16 -7 14 -17z m-618 -29 c0 -8 -4 -12 -10 -9 -5 3 -10 13 -10 21 0 8 5 12 10
9 6 -3 10 -13 10 -21z m-5 -54 c10 16 44 -17 65 -63 20 -44 15 -83 -12 -98
-18 -10 -19 -8 -13 13 6 22 5 22 -6 3 -7 -11 -18 -26 -25 -32 -7 -7 -15 -36
-18 -65 -4 -29 -11 -82 -16 -118 -5 -36 -12 -101 -15 -145 -3 -44 -8 -100 -11
-125 -3 -25 -1 -57 5 -72 9 -23 7 -28 -10 -33 -10 -4 -17 -10 -14 -15 6 -10
-96 -23 -119 -14 -12 5 -17 2 -15 -7 3 -15 -33 -130 -91 -284 -21 -55 -43
-125 -50 -155 -28 -123 -103 -240 -154 -240 -14 0 -15 8 -10 55 l7 55 -34 14
c-45 18 -99 27 -99 17 0 -4 25 -14 55 -21 31 -7 58 -17 61 -22 10 -16 -6 -78
-19 -78 -7 0 -36 11 -64 25 -48 24 -72 57 -64 89 1 5 -3 34 -10 64 -10 50 -9
57 7 70 22 15 86 11 109 -8 8 -7 15 -22 15 -33 0 -27 50 -111 60 -100 14 14
90 267 107 355 9 48 17 144 19 228 3 237 21 311 107 442 30 46 60 94 67 108 7
13 39 58 72 99 32 40 58 82 58 93 0 17 2 17 24 3 17 -11 26 -13 31 -5z m620
-181 c5 -5 -47 -9 -128 -9 -80 0 -137 4 -137 10 0 18 245 18 265 -1z m461 11
c30 0 32 -15 2 -17 -13 -1 -24 -6 -26 -11 -2 -6 -22 -6 -50 0 -51 10 -170 2
-193 -13 -9 -6 8 -9 49 -9 80 0 82 -20 2 -21 -33 -1 -70 -1 -83 -2 -12 -1 -28
2 -35 7 -6 4 -12 3 -12 -1 0 -5 -56 -8 -125 -8 -87 0 -125 3 -125 11 0 16 34
24 98 24 28 0 52 5 52 10 0 15 100 13 100 -2 1 -8 6 -6 14 5 11 14 29 17 109
17 60 0 98 4 103 11 4 7 23 9 52 5 25 -3 55 -6 68 -6z m-699 -46 c-3 -3 -12
-4 -19 -1 -8 3 -5 6 6 6 11 1 17 -2 13 -5z m13 -163 c0 -108 3 -130 16 -135
25 -10 74 -7 74 4 0 6 9 10 21 10 11 0 17 -4 14 -10 -3 -5 -2 -10 4 -10 5 0
13 5 16 10 9 14 72 12 79 -2 5 -10 7 -10 12 0 3 6 18 12 32 11 15 0 21 -3 14
-6 -16 -6 -6 -23 15 -23 9 0 13 6 9 15 -4 12 4 15 39 15 33 0 45 -4 45 -15 0
-8 7 -15 16 -15 10 0 14 6 10 15 -4 13 8 14 82 12 48 -1 90 -6 94 -12 5 -6 12
-5 20 3 19 19 24 15 24 -25 0 -20 -2 -31 -4 -25 -3 9 -93 12 -331 12 l-328 0
-7 61 c-3 34 -6 102 -6 150 0 82 2 89 20 89 19 0 20 -7 20 -129z m748 -13 c5
-7 13 -24 17 -37 6 -18 4 -22 -6 -15 -8 5 -23 7 -34 6 -18 -2 -19 -2 -2 8 21
13 23 34 2 26 -9 -3 -15 0 -15 9 0 18 24 20 38 3z m-748 -223 c0 -54 17 -60
23 -7 2 20 4 6 4 -33 0 -38 -2 -57 -4 -42 -4 23 -7 26 -18 17 -8 -6 -11 -18
-8 -27 4 -11 2 -14 -8 -11 -17 5 -26 88 -10 88 15 0 14 47 -1 53 -8 3 -6 6 5
6 14 1 17 -8 17 -44z m330 35 c0 -5 -4 -10 -10 -10 -5 0 -10 5 -10 10 0 6 5
10 10 10 6 0 10 -4 10 -10z m267 -22 c-3 -7 -5 -2 -5 12 0 14 2 19 5 13 2 -7
2 -19 0 -25z m40 0 c-3 -8 -6 -5 -6 6 -1 11 2 17 5 13 3 -3 4 -12 1 -19z
m-460 -30 c-3 -8 -6 -5 -6 6 -1 11 2 17 5 13 3 -3 4 -12 1 -19z m83 -39 c0
-40 -3 -49 -17 -48 -10 0 -13 3 -8 5 6 2 10 27 9 54 -1 28 2 48 7 44 5 -3 9
-27 9 -55z m97 -16 c-2 -16 -4 -5 -4 22 0 28 2 40 4 28 2 -13 2 -35 0 -50z
m243 37 c0 -11 -4 -20 -9 -20 -5 0 -7 9 -4 20 3 11 7 20 9 20 2 0 4 -9 4 -20z
m-158 -25 c-2 -14 -6 -25 -8 -25 -2 0 -4 11 -4 25 0 14 4 25 9 25 4 0 6 -11 3
-25z m-232 -41 c0 -2 -7 -4 -15 -4 -8 0 -15 4 -15 10 0 5 7 7 15 4 8 -4 15 -8
15 -10z m-687 -75 c-19 -6 -40 -5 -55 0 -18 8 -12 10 32 9 50 0 52 -1 23 -9z
m1177 -18 l0 -28 -117 -6 c-65 -3 -234 -3 -375 0 l-258 6 0 29 0 28 375 0 375
0 0 -29z m-202 -68 c-98 -2 -258 -2 -355 0 -98 1 -18 2 177 2 195 0 275 -1
178 -2z m1210 -308 c29 -8 52 -54 52 -105 0 -31 -6 -47 -26 -65 -73 -68 -202
23 -164 115 25 61 64 76 138 55z m-723 -189 c68 -29 66 -13 72 -541 l5 -476
-818 4 -819 5 3 473 c2 463 3 473 23 495 12 13 39 25 67 29 48 8 672 20 1160
23 216 2 280 -1 307 -12z m1360 -341 l0 -130 43 -3 43 -3 -3 -42 -3 -42 -62
-3 c-105 -5 -103 -9 -103 189 l0 170 43 -3 42 -3 0 -130z m-3115 100 c7 -8 21
-15 31 -15 56 0 67 -107 15 -158 -22 -23 -35 -27 -82 -27 -52 0 -59 3 -84 34
-16 18 -31 44 -34 57 -8 31 18 82 49 94 12 5 26 14 30 19 9 16 61 13 75 -4z
m2288 -31 c17 -21 32 -46 32 -56 0 -28 -26 -74 -56 -97 -69 -54 -174 4 -174
96 1 44 15 66 56 88 47 26 103 14 142 -31z m4702 -395 c7 -11 9 -26 7 -33 -7
-18 -139 -27 -247 -18 -71 6 -85 10 -88 25 -9 45 -1 47 162 47 147 0 156 -1
166 -21z m-380 -93 l0 -33 283 -7 c380 -10 394 -28 19 -25 -155 1 -285 -1
-289 -4 -3 -4 214 -8 483 -8 287 -1 472 -5 449 -10 -22 -4 -116 -8 -208 -8
-127 -1 -168 -4 -165 -13 3 -9 57 -12 209 -11 231 2 295 -6 329 -42 31 -32 45
-31 72 5 18 25 29 30 65 30 64 0 117 -37 150 -105 32 -64 12 -105 -71 -145
-102 -50 -262 -68 -755 -85 -234 -9 -491 -22 -571 -30 -80 -8 -179 -17 -220
-21 -168 -14 -629 -92 -875 -149 -70 -16 -93 -19 -342 -45 -291 -31 -1280 -28
-1598 5 -138 14 -293 38 -324 51 -66 28 -81 50 -81 120 0 71 22 198 43 246 32
75 57 136 73 180 l17 48 216 2 216 3 3 43 3 42 1435 0 1434 0 0 -34z m290 2
c0 -21 -5 -23 -54 -23 -30 0 -53 2 -52 5 2 3 6 13 9 23 5 13 18 17 52 17 40 0
45 -2 45 -22z"/>
<path d="M8280 5308 c-217 -5 -1067 -7 -1887 -6 l-1493 3 -1 -475 c-1 -453 -1
-549 0 -577 1 -10 421 -13 2066 -13 l2065 0 0 524 c0 464 -2 526 -16 540 -18
18 -76 19 -734 4z m-2225 -392 c17 -4 25 -13 25 -27 0 -12 8 -23 18 -26 39
-10 71 -143 38 -156 -8 -3 -17 -2 -20 4 -2 5 -3 4 -1 -3 1 -7 8 -12 14 -10 6
1 11 -2 11 -6 0 -14 -24 -41 -40 -44 -8 -2 -20 -15 -26 -29 -10 -22 -20 -27
-68 -33 -31 -4 -66 -4 -78 -1 -30 9 -68 45 -68 63 0 9 -3 12 -7 9 -11 -12 -33
14 -43 53 -6 24 -17 40 -30 43 -28 7 -26 37 3 37 22 0 57 46 57 75 0 16 39 47
50 40 4 -3 10 5 13 17 4 16 9 19 19 11 23 -17 75 -15 83 4 6 16 7 17 16 2 5
-9 20 -20 34 -23z m-534 9 c38 -14 63 -36 64 -56 0 -4 11 -16 25 -28 19 -15
22 -23 12 -29 -9 -6 -6 -12 12 -20 22 -10 24 -16 19 -49 -7 -45 -20 -64 -42
-61 -11 2 -17 -6 -19 -30 -4 -41 -42 -62 -111 -62 -74 0 -128 25 -158 73 -22
36 -25 48 -21 107 7 94 51 146 138 161 19 3 36 7 36 8 1 0 21 -6 45 -14z
m1459 0 c23 -8 46 -12 51 -9 5 3 9 0 9 -5 0 -6 16 -31 35 -57 30 -39 35 -53
34 -97 -1 -63 -5 -75 -48 -126 l-35 -41 -78 0 c-76 0 -80 1 -112 34 -45 44
-59 73 -51 103 3 15 1 29 -5 33 -7 5 -4 21 11 51 12 24 26 54 31 65 6 13 27
27 52 34 22 8 45 17 51 22 11 10 5 11 55 -7z m-438 -19 c39 -26 86 -124 80
-167 -8 -58 -58 -123 -112 -145 -98 -42 -217 36 -234 153 -5 35 -3 45 16 63
12 11 22 32 23 47 0 20 8 31 30 42 17 8 37 18 45 22 25 13 125 3 152 -15z
m1888 6 c19 -10 50 -41 68 -68 31 -44 34 -54 30 -107 -4 -49 -9 -62 -38 -92
-86 -89 -176 -85 -271 13 -30 32 -35 43 -34 82 3 139 134 230 245 172z m-952
-4 c9 -9 12 -9 12 0 0 7 7 12 16 12 11 0 13 -6 9 -19 -4 -14 0 -21 15 -26 22
-7 20 -33 -4 -65 -7 -10 -3 -9 10 3 11 9 29 17 39 17 14 0 16 -6 12 -30 -4
-16 -2 -32 4 -36 7 -4 6 -10 -1 -19 -6 -7 -8 -19 -5 -27 3 -8 1 -27 -4 -41 -8
-21 -17 -27 -41 -27 -28 0 -30 -3 -30 -35 0 -32 -3 -35 -28 -35 -15 0 -34 6
-40 12 -10 10 -17 10 -32 0 -29 -18 -70 -15 -76 6 -11 34 -21 47 -47 60 -15 7
-27 20 -27 28 0 7 -5 14 -10 14 -14 0 -6 65 15 113 8 21 13 42 9 48 -3 6 0 10
7 8 30 -3 40 2 49 26 9 23 14 25 73 25 36 0 68 -5 75 -12z m500 -8 c17 -11 32
-25 32 -31 0 -7 11 -26 24 -44 21 -27 31 -69 27 -111 -2 -17 -53 -74 -67 -74
-8 0 -14 -6 -14 -13 0 -23 -33 -46 -75 -52 -33 -5 -46 -2 -74 19 -19 14 -41
26 -47 26 -7 0 -25 15 -39 34 -22 29 -26 43 -24 93 2 53 12 90 28 103 4 3 14
18 24 33 10 15 21 26 25 23 5 -3 14 -1 22 5 28 17 123 10 158 -11z m-1225
-140 c-3 -11 -9 -20 -14 -20 -5 0 -9 9 -9 20 0 11 6 20 14 20 9 0 12 -7 9 -20z"/>
<path d="M5967 4864 c-13 -13 -7 -24 14 -24 11 0 19 5 17 12 -5 14 -22 21 -31
12z"/>
<path d="M6030 4842 c0 -17 -6 -18 -140 -22 -32 0 -34 -1 -16 -15 23 -17 15
-42 -16 -48 -23 -4 -23 -5 -2 -12 12 -3 30 -23 41 -43 23 -45 66 -60 122 -43
33 10 40 16 46 47 8 43 -1 91 -19 97 -9 3 -12 15 -9 31 3 14 3 26 -1 26 -3 0
-6 -8 -6 -18z"/>
<path d="M5860 4690 c-13 -8 -12 -10 3 -10 9 0 17 5 17 10 0 12 -1 12 -20 0z"/>
<path d="M5410 4820 c-12 -16 -26 -28 -31 -24 -15 9 -23 -27 -11 -47 15 -23
16 -42 2 -34 -5 3 -10 1 -10 -4 0 -6 12 -11 26 -11 21 0 25 -4 21 -20 -5 -18
0 -19 63 -17 78 3 96 14 105 67 10 58 -14 96 -65 105 -23 4 -44 4 -47 1 -4 -3
-12 -1 -19 5 -9 7 -18 2 -34 -21z"/>
<path d="M6893 4831 c-35 -22 -53 -49 -53 -80 0 -90 124 -134 180 -64 30 38
25 109 -10 134 -39 29 -80 33 -117 10z"/>
<path d="M6445 4843 c-37 -8 -65 -26 -71 -47 -21 -64 -7 -122 34 -137 27 -10
124 -1 117 11 -3 5 4 24 16 44 12 21 18 43 14 55 -6 20 -70 82 -83 80 -4 -1
-16 -3 -27 -6z"/>
<path d="M8323 4835 c-35 -15 -63 -59 -63 -99 0 -14 11 -37 24 -52 20 -24 31
-28 74 -28 57 0 95 25 106 70 10 37 -22 94 -60 110 -40 17 -41 17 -81 -1z"/>
<path d="M7368 4823 c-62 -42 -60 -113 4 -153 72 -45 158 16 141 100 -4 22
-17 38 -48 55 -51 30 -51 30 -97 -2z"/>
<path d="M7875 4835 c-5 -2 -21 -6 -35 -9 -17 -3 -31 -17 -41 -38 -18 -40 -17
-100 2 -106 8 -3 22 -11 31 -20 22 -19 113 -12 136 11 10 10 16 35 16 67 1 44
-3 53 -29 75 -27 22 -54 29 -80 20z"/>
<path d="M6010 3759 c0 -10 -13 -59 -29 -107 -17 -48 -77 -240 -135 -427 -58
-187 -126 -400 -151 -473 -52 -154 -54 -164 -22 -157 12 2 63 12 112 20 50 8
113 22 140 31 92 29 315 72 315 61 0 -6 -25 -55 -55 -109 -30 -54 -55 -102
-55 -107 0 -4 -10 -23 -23 -42 -13 -19 -59 -104 -104 -189 -44 -85 -104 -198
-133 -250 -29 -52 -60 -108 -68 -125 -8 -16 -66 -120 -128 -230 -93 -166 -112
-205 -107 -229 l6 -29 1711 7 c1561 7 1712 9 1724 24 9 12 12 264 12 1181 l0
1166 -1505 2 c-1493 2 -1505 2 -1505 -18z m2844 -1715 c7 -405 6 -437 -10
-455 -17 -18 -35 -19 -413 -17 -218 2 -395 6 -393 11 1 4 2 207 2 452 l0 445
403 0 404 0 7 -436z"/>
<path d="M8130 2025 l0 -355 320 0 320 0 0 355 0 355 -320 0 -320 0 0 -355z"/>
<path d="M9074 1595 c0 -88 2 -123 3 -77 2 46 2 118 0 160 -1 42 -3 5 -3 -83z"/>
<path d="M7700 1370 c-193 -4 -71 -6 450 -10 712 -5 900 -2 850 12 -27 8 -863
7 -1300 -2z"/>
<path d="M7393 1363 c9 -2 23 -2 30 0 6 3 -1 5 -18 5 -16 0 -22 -2 -12 -5z"/>
<path d="M9068 1363 c6 -2 18 -2 25 0 6 3 1 5 -13 5 -14 0 -19 -2 -12 -5z"/>
<path d="M2815 3780 c-4 -6 17 -10 54 -10 34 0 61 4 61 10 0 6 -24 10 -54 10
-30 0 -58 -4 -61 -10z"/>
<path d="M2818 3743 c6 -2 18 -2 25 0 6 3 1 5 -13 5 -14 0 -19 -2 -12 -5z"/>
<path d="M2800 3639 c0 -22 29 -29 98 -22 57 6 92 17 92 31 0 4 -43 7 -95 7
-81 0 -95 -2 -95 -16z"/>
<path d="M2583 3255 c13 -27 22 -31 32 -15 8 13 -13 40 -30 40 -10 0 -11 -5
-2 -25z"/>
<path d="M2690 3250 c0 -5 5 -10 10 -10 6 0 10 5 10 10 0 6 -4 10 -10 10 -5 0
-10 -4 -10 -10z"/>
<path d="M2056 3041 c-98 -127 -170 -298 -187 -445 -13 -120 -12 -138 9 -134
9 2 21 13 27 25 6 14 16 21 25 18 16 -5 45 46 41 73 -1 7 10 12 29 12 41 0 47
19 66 199 8 80 17 158 20 174 2 15 6 37 8 50 1 12 6 37 10 55 4 17 5 32 2 32
-2 0 -25 -27 -50 -59z"/>
<path d="M2000 2560 c0 -5 5 -10 10 -10 6 0 10 5 10 10 0 6 -4 10 -10 10 -5 0
-10 -4 -10 -10z"/>
<path d="M2000 2500 c0 -5 7 -10 16 -10 8 0 12 5 9 10 -3 6 -10 10 -16 10 -5
0 -9 -4 -9 -10z"/>
<path d="M4194 1966 c-12 -31 0 -51 31 -51 24 0 31 5 33 24 6 36 -51 60 -64
27z"/>
<path d="M2390 1811 c-356 -7 -344 -3 -354 -120 -3 -41 -6 -238 -6 -438 l0
-363 770 0 770 0 0 430 c0 453 -2 477 -45 494 -19 7 -697 5 -1135 -3z"/>
<path d="M1724 1529 c-3 -6 1 -18 10 -27 19 -19 49 -7 54 22 3 12 -4 16 -27
16 -16 0 -33 -5 -37 -11z"/>
<path d="M3980 1580 c20 -13 33 -13 25 0 -3 6 -14 10 -23 10 -15 0 -15 -2 -2
-10z"/>
<path d="M3940 1550 c0 -5 7 -10 15 -10 8 0 15 5 15 10 0 6 -7 10 -15 10 -8 0
-15 -4 -15 -10z"/>
<path d="M8568 5702 l-168 -2 0 -43 c1 -33 3 -38 11 -24 9 15 29 17 186 17
156 0 177 -2 190 -17 12 -16 13 -13 11 27 -3 42 -5 45 -33 45 -16 0 -105 -1
-197 -3z"/>
<path d="M5150 5544 c0 -9 7 -14 17 -12 25 5 28 28 4 28 -12 0 -21 -6 -21 -16z"/>
<path d="M10080 80 l0 -80 80 0 80 0 0 80 0 80 -80 0 -80 0 0 -80z"/>
</g>
</svg>
